<svg width="24" height="24" viewBox="0 0 24 24" fill="none" xmlns="http://www.w3.org/2000/svg">
<path opacity="0.4" d="M2 12.7141C2 11.3746 3.08906 10.2855 4.42857 10.2855H19C20.3395 10.2855 21.4286 11.3746 21.4286 12.7141V13.9284V15.1427H20.2143H3.21429H2V13.9284V12.7141Z" fill="#387D83"/>
<path d="M3.21429 4.82143C3.21429 3.81585 4.03013 3 5.03571 3H18.3929C19.3984 3 20.2143 3.81585 20.2143 4.82143V10.6121C19.8576 10.4071 19.444 10.2857 19 10.2857H18.3929V7.85714C18.3929 7.18549 17.8502 6.64286 17.1786 6.64286H13.5357C12.8641 6.64286 12.3214 7.18549 12.3214 7.85714V10.2857H11.1071V7.85714C11.1071 7.18549 10.5645 6.64286 9.89286 6.64286H6.25C5.57835 6.64286 5.03571 7.18549 5.03571 7.85714V10.2857H4.42857C3.9846 10.2857 3.57098 10.4033 3.21429 10.6121V4.82143ZM3.21429 15.1429H20.2143H21.4286V16.3571V18.7857C21.4286 19.4574 20.8859 20 20.2143 20C19.5426 20 19 19.4574 19 18.7857V17.5714H4.42857V18.7857C4.42857 19.4574 3.88594 20 3.21429 20C2.54263 20 2 19.4574 2 18.7857V16.3571V15.1429H3.21429Z" fill="#387D83"/>
</svg>
