<svg width="32" height="32" viewBox="0 0 32 32" fill="none" xmlns="http://www.w3.org/2000/svg">
<g id="icon/bio-diversit&#195;&#169;">
<g id="Union">
<path d="M30.101 14.0916L30.6138 13.3705L31.9998 14.3502L29.7865 17.4623L26.6647 15.2558L27.6474 13.8741L28.431 14.428C27.6878 8.4052 22.5094 3.73454 16.2234 3.73454V2.04077C23.3247 2.04077 29.1972 7.28699 30.101 14.0916Z" fill="#60A5AB"/>
<path fill-rule="evenodd" clip-rule="evenodd" d="M3.72771 16.7161L4.37364 17.36L5.57501 16.1623L2.86905 13.4647L0.163086 16.1623L1.36446 17.36L2.02488 16.7016C2.42819 24.0424 8.49439 29.8775 15.9279 29.8775V28.1837C9.44604 28.1837 4.13563 23.1218 3.72771 16.7161ZM2.93153 15.9223L2.86905 15.86L2.80657 15.9223H2.93153Z" fill="#60A5AB"/>
</g>
<path id="Ellipse 23 (Stroke)" fill-rule="evenodd" clip-rule="evenodd" d="M16.2447 7.41009C11.5006 7.41009 7.65484 11.2559 7.65484 15.9999C7.65484 20.744 11.5006 24.5898 16.2447 24.5898C20.9887 24.5898 24.8346 20.744 24.8346 15.9999C24.8346 11.2559 20.9887 7.41009 16.2447 7.41009ZM5.95898 15.9999C5.95898 10.3193 10.5641 5.71423 16.2447 5.71423C21.9253 5.71423 26.5304 10.3193 26.5304 15.9999C26.5304 21.6806 21.9253 26.2857 16.2447 26.2857C10.5641 26.2857 5.95898 21.6806 5.95898 15.9999Z" fill="#387D83"/>
<path id="Ellipse 24 (Stroke)" fill-rule="evenodd" clip-rule="evenodd" d="M13.0573 9.74866C12.1602 11.3063 11.5783 13.5147 11.5783 15.9999C11.5783 18.4852 12.1602 20.6936 13.0573 22.2512C13.9678 23.8321 15.097 24.5898 16.1632 24.5898C17.2293 24.5898 18.3586 23.8321 19.269 22.2512C20.1661 20.6936 20.748 18.4852 20.748 15.9999C20.748 13.5147 20.1661 11.3063 19.269 9.74866C18.3586 8.16777 17.2293 7.41009 16.1632 7.41009C15.097 7.41009 13.9678 8.16777 13.0573 9.74866ZM11.5823 8.90419C12.6391 7.06927 14.2275 5.71423 16.1632 5.71423C18.0989 5.71423 19.6872 7.06927 20.744 8.90419C21.8141 10.7623 22.4489 13.2729 22.4489 15.9999C22.4489 18.727 21.8141 21.2376 20.744 23.0957C19.6872 24.9306 18.0989 26.2857 16.1632 26.2857C14.2275 26.2857 12.6391 24.9306 11.5823 23.0957C10.5122 21.2376 9.87744 18.727 9.87744 15.9999C9.87744 13.2729 10.5122 10.7623 11.5823 8.90419Z" fill="#387D83"/>
<path id="Ellipse 26 (Stroke)" fill-rule="evenodd" clip-rule="evenodd" d="M16.2234 12.6724C19.3685 12.6724 22.0403 11.7428 23.5336 10.449L24.6528 11.7271C22.7624 13.3649 19.6479 14.3673 16.2234 14.3673C12.9611 14.3673 9.98827 13.4584 8.0814 11.9639L9.13605 10.6326C10.6671 11.8326 13.2354 12.6724 16.2234 12.6724Z" fill="#387D83"/>
<path id="Ellipse 27 (Stroke)" fill-rule="evenodd" clip-rule="evenodd" d="M16.4695 19.8173C13.3399 19.8173 10.6813 20.747 9.19524 22.0408L8.08154 20.7627C9.96266 19.1249 13.0618 18.1224 16.4695 18.1224C19.7157 18.1224 22.6739 19.0313 24.5713 20.5258L23.5219 21.8571C21.9984 20.6572 19.4428 19.8173 16.4695 19.8173Z" fill="#387D83"/>
<path id="Line 86 (Stroke)" fill-rule="evenodd" clip-rule="evenodd" d="M15.4288 24.8979L15.4288 7.02039L17.1431 7.02039L17.1431 24.8979L15.4288 24.8979Z" fill="#387D83"/>
<path id="Line 87 (Stroke)" fill-rule="evenodd" clip-rule="evenodd" d="M6.93868 15.5102L24.9795 15.5102L24.9795 17.1428L6.93868 17.1428L6.93868 15.5102Z" fill="#387D83"/>
</g>
</svg>
