<svg width="32" height="32" viewBox="0 0 32 32" fill="none" xmlns="http://www.w3.org/2000/svg">
<g id="icon/bio-diversit&#195;&#169;">
<g id="Union">
<path d="M30.101 14.0916L30.6138 13.3705L31.9998 14.3502L29.7865 17.4623L26.6647 15.2558L27.6474 13.8741L28.431 14.428C27.6878 8.4052 22.5094 3.73454 16.2234 3.73454V2.04077C23.3247 2.04077 29.1972 7.28699 30.101 14.0916Z" fill="#CFECEE"/>
<path fill-rule="evenodd" clip-rule="evenodd" d="M3.72771 16.7161L4.37364 17.36L5.57501 16.1623L2.86905 13.4647L0.163086 16.1623L1.36446 17.36L2.02488 16.7016C2.42819 24.0424 8.49439 29.8775 15.9279 29.8775V28.1837C9.44604 28.1837 4.13563 23.1218 3.72771 16.7161ZM2.93153 15.9223L2.86905 15.86L2.80657 15.9223H2.93153Z" fill="#CFECEE"/>
</g>
<path id="Ellipse 23 (Stroke)" fill-rule="evenodd" clip-rule="evenodd" d="M16.2447 7.41009C11.5006 7.41009 7.65484 11.2559 7.65484 15.9999C7.65484 20.744 11.5006 24.5898 16.2447 24.5898C20.9887 24.5898 24.8346 20.744 24.8346 15.9999C24.8346 11.2559 20.9887 7.41009 16.2447 7.41009ZM5.95898 15.9999C5.95898 10.3193 10.5641 5.71423 16.2447 5.71423C21.9253 5.71423 26.5304 10.3193 26.5304 15.9999C26.5304 21.6806 21.9253 26.2857 16.2447 26.2857C10.5641 26.2857 5.95898 21.6806 5.95898 15.9999Z" fill="#DBEDEF"/>
<path id="Ellipse 24 (Stroke)" fill-rule="evenodd" clip-rule="evenodd" d="M13.0578 9.74866C12.1607 11.3063 11.5788 13.5147 11.5788 15.9999C11.5788 18.4852 12.1607 20.6936 13.0578 22.2512C13.9682 23.8321 15.0975 24.5898 16.1636 24.5898C17.2298 24.5898 18.359 23.8321 19.2695 22.2512C20.1666 20.6936 20.7485 18.4852 20.7485 15.9999C20.7485 13.5147 20.1666 11.3063 19.2695 9.74866C18.359 8.16777 17.2298 7.41009 16.1636 7.41009C15.0975 7.41009 13.9682 8.16777 13.0578 9.74866ZM11.5828 8.90419C12.6396 7.06927 14.2279 5.71423 16.1636 5.71423C18.0993 5.71423 19.6877 7.06927 20.7445 8.90419C21.8146 10.7623 22.4494 13.2729 22.4494 15.9999C22.4494 18.727 21.8146 21.2376 20.7445 23.0957C19.6877 24.9306 18.0993 26.2857 16.1636 26.2857C14.2279 26.2857 12.6396 24.9306 11.5828 23.0957C10.5127 21.2376 9.87793 18.727 9.87793 15.9999C9.87793 13.2729 10.5127 10.7623 11.5828 8.90419Z" fill="#DBEDEF"/>
<path id="Ellipse 26 (Stroke)" fill-rule="evenodd" clip-rule="evenodd" d="M16.2238 12.6724C19.3689 12.6724 22.0407 11.7428 23.5341 10.449L24.6533 11.7271C22.7629 13.3649 19.6484 14.3673 16.2238 14.3673C12.9616 14.3673 9.98876 13.4584 8.08189 11.9639L9.13654 10.6326C10.6676 11.8326 13.2359 12.6724 16.2238 12.6724Z" fill="#DBEDEF"/>
<path id="Ellipse 27 (Stroke)" fill-rule="evenodd" clip-rule="evenodd" d="M16.47 19.8173C13.3404 19.8173 10.6817 20.747 9.19573 22.0408L8.08203 20.7627C9.96315 19.1249 13.0623 18.1224 16.47 18.1224C19.7161 18.1224 22.6744 19.0313 24.5718 20.5258L23.5224 21.8571C21.9989 20.6572 19.4432 19.8173 16.47 19.8173Z" fill="#DBEDEF"/>
<path id="Line 86 (Stroke)" fill-rule="evenodd" clip-rule="evenodd" d="M15.4283 24.8979L15.4283 7.02039L17.1426 7.02039L17.1426 24.8979L15.4283 24.8979Z" fill="#DBEDEF"/>
<path id="Line 87 (Stroke)" fill-rule="evenodd" clip-rule="evenodd" d="M6.93868 15.5102L24.9795 15.5102L24.9795 17.1428L6.93868 17.1428L6.93868 15.5102Z" fill="#DBEDEF"/>
</g>
</svg>
