<svg width="24" height="24" viewBox="0 0 24 24" fill="none" xmlns="http://www.w3.org/2000/svg">
<path d="M3.25 2C2.55859 2 2 2.55859 2 3.25C2 3.94141 2.55859 4.5 3.25 4.5H20.75C21.4414 4.5 22 3.94141 22 3.25C22 2.55859 21.4414 2 20.75 2H3.25ZM6.375 5.75C6.03125 5.75 5.75 6.03125 5.75 6.375V7.625C5.75 7.96875 6.03125 8.25 6.375 8.25H7.625C7.96875 8.25 8.25 7.96875 8.25 7.625V6.375C8.25 6.03125 7.96875 5.75 7.625 5.75H6.375ZM11.375 5.75C11.0312 5.75 10.75 6.03125 10.75 6.375V7.625C10.75 7.96875 11.0312 8.25 11.375 8.25H12.625C12.9688 8.25 13.25 7.96875 13.25 7.625V6.375C13.25 6.03125 12.9688 5.75 12.625 5.75H11.375ZM15.75 6.375V7.625C15.75 7.96875 16.0312 8.25 16.375 8.25H17.625C17.9688 8.25 18.25 7.96875 18.25 7.625V6.375C18.25 6.03125 17.9688 5.75 17.625 5.75H16.375C16.0312 5.75 15.75 6.03125 15.75 6.375ZM6.375 9.5C6.03125 9.5 5.75 9.78125 5.75 10.125V11.375C5.75 11.7188 6.03125 12 6.375 12H7.625C7.96875 12 8.25 11.7188 8.25 11.375V10.125C8.25 9.78125 7.96875 9.5 7.625 9.5H6.375ZM10.75 10.125V11.375C10.75 11.7188 11.0312 12 11.375 12H12.625C12.9688 12 13.25 11.7188 13.25 11.375V10.125C13.25 9.78125 12.9688 9.5 12.625 9.5H11.375C11.0312 9.5 10.75 9.78125 10.75 10.125ZM16.375 9.5C16.0312 9.5 15.75 9.78125 15.75 10.125V11.375C15.75 11.7188 16.0312 12 16.375 12H17.625C17.9688 12 18.25 11.7188 18.25 11.375V10.125C18.25 9.78125 17.9688 9.5 17.625 9.5H16.375ZM14.8125 17C15.332 17 15.7617 16.5742 15.6328 16.0703C15.2188 14.4492 13.75 13.25 12 13.25C10.25 13.25 8.77734 14.4492 8.36719 16.0703C8.23828 16.5703 8.67188 17 9.1875 17H14.8125Z" fill="#387D83"/>
<path opacity="0.4" d="M20.75 4.5H3.25V19.5C2.55859 19.5 2 20.0586 2 20.75C2 21.4414 2.55859 22 3.25 22H10.125V20.125C10.125 19.0898 10.9648 18.25 12 18.25C13.0352 18.25 13.875 19.0898 13.875 20.125V22H20.75C21.4414 22 22 21.4414 22 20.75C22 20.0586 21.4414 19.5 20.75 19.5V4.5ZM5.75 6.375C5.75 6.03125 6.03125 5.75 6.375 5.75H7.625C7.96875 5.75 8.25 6.03125 8.25 6.375V7.625C8.25 7.96875 7.96875 8.25 7.625 8.25H6.375C6.03125 8.25 5.75 7.96875 5.75 7.625V6.375ZM11.375 5.75H12.625C12.9688 5.75 13.25 6.03125 13.25 6.375V7.625C13.25 7.96875 12.9688 8.25 12.625 8.25H11.375C11.0312 8.25 10.75 7.96875 10.75 7.625V6.375C10.75 6.03125 11.0312 5.75 11.375 5.75ZM15.75 6.375C15.75 6.03125 16.0312 5.75 16.375 5.75H17.625C17.9688 5.75 18.25 6.03125 18.25 6.375V7.625C18.25 7.96875 17.9688 8.25 17.625 8.25H16.375C16.0312 8.25 15.75 7.96875 15.75 7.625V6.375ZM6.375 9.5H7.625C7.96875 9.5 8.25 9.78125 8.25 10.125V11.375C8.25 11.7188 7.96875 12 7.625 12H6.375C6.03125 12 5.75 11.7188 5.75 11.375V10.125C5.75 9.78125 6.03125 9.5 6.375 9.5ZM10.75 10.125C10.75 9.78125 11.0312 9.5 11.375 9.5H12.625C12.9688 9.5 13.25 9.78125 13.25 10.125V11.375C13.25 11.7188 12.9688 12 12.625 12H11.375C11.0312 12 10.75 11.7188 10.75 11.375V10.125ZM16.375 9.5H17.625C17.9688 9.5 18.25 9.78125 18.25 10.125V11.375C18.25 11.7188 17.9688 12 17.625 12H16.375C16.0312 12 15.75 11.7188 15.75 11.375V10.125C15.75 9.78125 16.0312 9.5 16.375 9.5ZM14.8125 17H9.1875C8.66797 17 8.23828 16.5742 8.36719 16.0703C8.78125 14.4492 10.25 13.25 12 13.25C13.75 13.25 15.2227 14.4492 15.6328 16.0703C15.7617 16.5703 15.3281 17 14.8125 17Z" fill="#387D83"/>
</svg>
