<svg width="31" height="25" viewBox="0 0 31 25" fill="none" xmlns="http://www.w3.org/2000/svg">
<g id="Group 21">
<path id="Vector" d="M19.1667 6.1333H24.5334V10.7333C24.5334 11.5814 25.2186 12.2666 26.0667 12.2666H30.6667V22.2333C30.6667 23.5031 29.6365 24.5333 28.3667 24.5333H19.1667C17.8969 24.5333 16.8667 23.5031 16.8667 22.2333V8.4333C16.8667 7.16351 17.8969 6.1333 19.1667 6.1333ZM30.6667 10.7333H26.0667V6.1333L30.6667 10.7333Z" fill="#387D83"/>
<path id="Vector_2" d="M3.06667 3.06667C3.06667 1.37521 4.44187 0 6.13333 0H21.4667C23.1581 0 24.5333 1.37521 24.5333 3.06667V4.6H21.4667V3.06667H6.13333V13.8H15.3333V18.4H3.68C1.64833 18.4 0 16.7517 0 14.72C0 14.2121 0.412083 13.8 0.92 13.8H3.06667V3.06667Z" fill="#60A5AB"/>
</g>
</svg>
