<svg width="32" height="32" viewBox="0 0 32 32" fill="none" xmlns="http://www.w3.org/2000/svg">
<path d="M19.1662 10.1334H24.5329V14.7334C24.5329 15.5815 25.2181 16.2667 26.0662 16.2667H30.6662V26.2334C30.6662 27.5032 29.636 28.5334 28.3662 28.5334H19.1662C17.8964 28.5334 16.8662 27.5032 16.8662 26.2334V12.4334C16.8662 11.1636 17.8964 10.1334 19.1662 10.1334ZM30.6662 14.7334H26.0662V10.1334L30.6662 14.7334Z" fill="#DBEDEF"/>
<path d="M3.06667 7.06667C3.06667 5.37521 4.44187 4 6.13333 4H21.4667C23.1581 4 24.5333 5.37521 24.5333 7.06667V8.6H21.4667V7.06667H6.13333V17.8H15.3333V22.4H3.68C1.64833 22.4 0 20.7517 0 18.72C0 18.2121 0.412083 17.8 0.92 17.8H3.06667V7.06667Z" fill="#CFECEE"/>
</svg>
