<svg width="24" height="24" viewBox="0 0 24 24" fill="none" xmlns="http://www.w3.org/2000/svg">
<path d="M2.49047 3.14588L4.21547 4.29588C4.61078 4.56182 4.71859 5.09729 4.45625 5.4926C4.19391 5.88791 3.65484 5.99572 3.25953 5.73338L1.53453 4.58338C1.13922 4.31744 1.03141 3.78197 1.29375 3.38666C1.55609 2.99135 2.09516 2.88354 2.49047 3.14588ZM21.4655 4.58338L19.7405 5.73338C19.3452 5.99932 18.8097 5.8915 18.5437 5.4926C18.2778 5.09369 18.3856 4.56182 18.7845 4.29588L20.5095 3.14588C20.9048 2.87994 21.4403 2.98775 21.7062 3.38666C21.9722 3.78557 21.8644 4.31744 21.4655 4.58338ZM0.8625 8.75213H3.1625C3.64047 8.75213 4.025 9.13666 4.025 9.61463C4.025 10.0926 3.64047 10.4771 3.1625 10.4771H0.8625C0.384531 10.4771 0 10.0926 0 9.61463C0 9.13666 0.384531 8.75213 0.8625 8.75213ZM19.8375 8.75213H22.1375C22.6155 8.75213 23 9.13666 23 9.61463C23 10.0926 22.6155 10.4771 22.1375 10.4771H19.8375C19.3595 10.4771 18.975 10.0926 18.975 9.61463C18.975 9.13666 19.3595 8.75213 19.8375 8.75213ZM4.21547 14.9334L2.49047 16.0834C2.09516 16.3493 1.55969 16.2415 1.29375 15.8426C1.02781 15.4437 1.13563 14.9118 1.53453 14.6459L3.25953 13.4959C3.65484 13.2299 4.19031 13.3378 4.45625 13.7367C4.72219 14.1356 4.61438 14.6674 4.21547 14.9334ZM19.7405 13.4995L21.4655 14.6495C21.8608 14.9154 21.9686 15.4509 21.7062 15.8462C21.4439 16.2415 20.9048 16.3493 20.5095 16.087L18.7845 14.937C18.3892 14.671 18.2814 14.1356 18.5437 13.7403C18.8061 13.3449 19.3452 13.2371 19.7405 13.4995ZM14.375 18.5271C14.375 20.1156 13.0884 21.4021 11.5 21.4021C9.91156 21.4021 8.625 20.1156 8.625 18.5271V16.8021H14.375V18.5271Z" fill="#387D83"/>
<path opacity="0.4" d="M16.1439 13.7044C15.4323 14.6783 14.7172 15.6594 14.3758 16.8022H8.62578C8.28078 15.6558 7.56563 14.6783 6.85766 13.7044C6.67078 13.4492 6.48391 13.1941 6.30422 12.9353C5.59266 11.9111 5.17578 10.6677 5.17578 9.3272C5.17578 5.83407 8.00766 3.0022 11.5008 3.0022C14.9939 3.0022 17.8258 5.83407 17.8258 9.3272C17.8258 10.6677 17.4089 11.9111 16.6973 12.9317C16.5177 13.1905 16.3308 13.4456 16.1439 13.7008V13.7044ZM8.62578 9.3272C8.62578 7.73876 9.91234 6.4522 11.5008 6.4522C11.817 6.4522 12.0758 6.19345 12.0758 5.8772C12.0758 5.56095 11.817 5.3022 11.5008 5.3022C9.27625 5.3022 7.47578 7.10267 7.47578 9.3272C7.47578 9.64345 7.73453 9.9022 8.05078 9.9022C8.36703 9.9022 8.62578 9.64345 8.62578 9.3272Z" fill="#387D83"/>
</svg>
