<svg width="18" height="16" viewBox="0 0 18 16" fill="none" xmlns="http://www.w3.org/2000/svg">
<path opacity="0.4" d="M5.5 0C4.67188 0 4 0.671875 4 1.5V3H1.5C0.671875 3 0 3.67188 0 4.5V14.5C0 15.3281 0.671875 16 1.5 16H4H5H8V13C8 12.4469 8.44687 12 9 12C9.55313 12 10 12.4469 10 13V16H13H14H16.5C17.3281 16 18 15.3281 18 14.5V7.5C18 6.67188 17.3281 6 16.5 6H14V1.5C14 0.671875 13.3281 0 12.5 0H5.5ZM11.5 10H10.5C10.225 10 10 9.775 10 9.5V8.5C10 8.225 10.225 8 10.5 8H11.5C11.775 8 12 8.225 12 8.5V9.5C12 9.775 11.775 10 11.5 10ZM16 12.5C16 12.775 15.775 13 15.5 13H14.5C14.225 13 14 12.775 14 12.5V11.5C14 11.225 14.225 11 14.5 11H15.5C15.775 11 16 11.225 16 11.5V12.5ZM3.5 10H2.5C2.225 10 2 9.775 2 9.5V8.5C2 8.225 2.225 8 2.5 8H3.5C3.775 8 4 8.225 4 8.5V9.5C4 9.775 3.775 10 3.5 10ZM4 12.5C4 12.775 3.775 13 3.5 13H2.5C2.225 13 2 12.775 2 12.5V11.5C2 11.225 2.225 11 2.5 11H3.5C3.775 11 4 11.225 4 11.5V12.5ZM7.5 10H6.5C6.225 10 6 9.775 6 9.5V8.5C6 8.225 6.225 8 6.5 8H7.5C7.775 8 8 8.225 8 8.5V9.5C8 9.775 7.775 10 7.5 10ZM12 2.5V3.5C12 3.775 11.775 4 11.5 4H10.5C10.225 4 10 3.775 10 3.5V2.5C10 2.225 10.225 2 10.5 2H11.5C11.775 2 12 2.225 12 2.5ZM7.5 2C7.775 2 8 2.225 8 2.5V3.5C8 3.775 7.775 4 7.5 4H6.5C6.225 4 6 3.775 6 3.5V2.5C6 2.225 6.225 2 6.5 2H7.5ZM12 6.5C12 6.775 11.775 7 11.5 7H10.5C10.225 7 10 6.775 10 6.5V5.5C10 5.225 10.225 5 10.5 5H11.5C11.775 5 12 5.225 12 5.5V6.5ZM15.5 10H14.5C14.225 10 14 9.775 14 9.5V8.5C14 8.225 14.225 8 14.5 8H15.5C15.775 8 16 8.225 16 8.5V9.5C16 9.775 15.775 10 15.5 10ZM4 6.5C4 6.775 3.775 7 3.5 7H2.5C2.225 7 2 6.775 2 6.5V5.5C2 5.225 2.225 5 2.5 5H3.5C3.775 5 4 5.225 4 5.5V6.5ZM7.5 7H6.5C6.225 7 6 6.775 6 6.5V5.5C6 5.225 6.225 5 6.5 5H7.5C7.775 5 8 5.225 8 5.5V6.5C8 6.775 7.775 7 7.5 7Z" fill="#308188"/>
<path d="M12 2.5C12 2.225 11.775 2 11.5 2H10.5C10.225 2 10 2.225 10 2.5V3.5C10 3.775 10.225 4 10.5 4H11.5C11.775 4 12 3.775 12 3.5V2.5ZM3.5 10C3.775 10 4 9.775 4 9.5V8.5C4 8.225 3.775 8 3.5 8H2.5C2.225 8 2 8.225 2 8.5V9.5C2 9.775 2.225 10 2.5 10H3.5ZM12 9.5V8.5C12 8.225 11.775 8 11.5 8H10.5C10.225 8 10 8.225 10 8.5V9.5C10 9.775 10.225 10 10.5 10H11.5C11.775 10 12 9.775 12 9.5ZM16 12.5V11.5C16 11.225 15.775 11 15.5 11H14.5C14.225 11 14 11.225 14 11.5V12.5C14 12.775 14.225 13 14.5 13H15.5C15.775 13 16 12.775 16 12.5ZM4 12.5V11.5C4 11.225 3.775 11 3.5 11H2.5C2.225 11 2 11.225 2 11.5V12.5C2 12.775 2.225 13 2.5 13H3.5C3.775 13 4 12.775 4 12.5ZM7.5 10C7.775 10 8 9.775 8 9.5V8.5C8 8.225 7.775 8 7.5 8H6.5C6.225 8 6 8.225 6 8.5V9.5C6 9.775 6.225 10 6.5 10H7.5ZM7.5 2H6.5C6.225 2 6 2.225 6 2.5V3.5C6 3.775 6.225 4 6.5 4H7.5C7.775 4 8 3.775 8 3.5V2.5C8 2.225 7.775 2 7.5 2ZM12 6.5V5.5C12 5.225 11.775 5 11.5 5H10.5C10.225 5 10 5.225 10 5.5V6.5C10 6.775 10.225 7 10.5 7H11.5C11.775 7 12 6.775 12 6.5ZM15.5 10C15.775 10 16 9.775 16 9.5V8.5C16 8.225 15.775 8 15.5 8H14.5C14.225 8 14 8.225 14 8.5V9.5C14 9.775 14.225 10 14.5 10H15.5ZM4 6.5V5.5C4 5.225 3.775 5 3.5 5H2.5C2.225 5 2 5.225 2 5.5V6.5C2 6.775 2.225 7 2.5 7H3.5C3.775 7 4 6.775 4 6.5ZM7.5 7C7.775 7 8 6.775 8 6.5V5.5C8 5.225 7.775 5 7.5 5H6.5C6.225 5 6 5.225 6 5.5V6.5C6 6.775 6.225 7 6.5 7H7.5Z" fill="#308188"/>
</svg>
