<svg width="24" height="24" viewBox="0 0 24 24" fill="none" xmlns="http://www.w3.org/2000/svg">
<path d="M12.0909 14.4583C13.3727 12.8571 16.2916 8.97188 16.2916 6.79167C16.2916 4.14427 14.1473 2 11.4999 2C8.85252 2 6.70825 4.14427 6.70825 6.79167C6.70825 8.97188 9.62718 12.8571 10.9089 14.4583C11.2164 14.8417 11.7874 14.8417 12.0909 14.4583ZM11.4999 4.875C11.9235 4.875 12.3298 5.04328 12.6293 5.34282C12.9289 5.64235 13.0971 6.04861 13.0971 6.47222C13.0971 6.89583 12.9289 7.30209 12.6293 7.60163C12.3298 7.90117 11.9235 8.06944 11.4999 8.06944C11.0763 8.06944 10.67 7.90117 10.3705 7.60163C10.071 7.30209 9.9027 6.89583 9.9027 6.47222C9.9027 6.04861 10.071 5.64235 10.3705 5.34282C10.67 5.04328 11.0763 4.875 11.4999 4.875Z" fill="#387D83"/>
<path opacity="0.4" d="M16.6111 22.0851V10.0021C16.7509 9.7266 16.8786 9.45108 16.9944 9.17955C17.0144 9.13163 17.0344 9.07972 17.0543 9.03181L21.6863 7.17903C22.3172 6.92747 23 7.39066 23 8.06948V18.8827C23 19.274 22.7604 19.6254 22.397 19.7731L16.6111 22.0851ZM0.602951 9.47903L5.49844 7.52243C5.59427 8.08545 5.78594 8.65247 6.00955 9.17955C6.12535 9.45108 6.25313 9.7266 6.39288 10.0021V20.0407L1.31372 22.0731C0.682813 22.3247 0 21.8615 0 21.1827V10.3695C0 9.97816 0.239583 9.62677 0.602951 9.47903ZM15.3333 12.1823V22.137L7.66667 19.9448V12.1823C8.48524 13.4322 9.35573 14.5622 9.91076 15.257C10.7293 16.2792 12.2707 16.2792 13.0892 15.257C13.6443 14.5622 14.5148 13.4322 15.3333 12.1823Z" fill="#387D83"/>
</svg>
