<svg width="32" height="32" viewBox="0 0 32 32" fill="none" xmlns="http://www.w3.org/2000/svg">
<path d="M18.9338 8.26665C18.9338 7.48868 18.6247 6.74257 18.0746 6.19247C17.5245 5.64236 16.7784 5.33331 16.0005 5.33331C15.2225 5.33331 14.4764 5.64236 13.9263 6.19247C13.3762 6.74257 13.0671 7.48868 13.0671 8.26665C13.0671 9.04461 13.3762 9.79072 13.9263 10.3408C14.4764 10.8909 15.2225 11.2 16.0005 11.2C16.7784 11.2 17.5245 10.8909 18.0746 10.3408C18.6247 9.79072 18.9338 9.04461 18.9338 8.26665ZM13.0671 15.8612V19.7433C12.6088 19.2254 12.3338 18.5471 12.3338 17.8046C12.3338 17.0621 12.6088 16.3791 13.0671 15.8658V15.8612ZM18.9338 19.7433V15.8612C19.3921 16.3791 19.6671 17.0575 19.6671 17.8C19.6671 18.5425 19.3921 19.2208 18.9338 19.7387V19.7433ZM18.9338 22.4429C20.6663 21.6179 21.8671 19.8533 21.8671 17.8046C21.8671 14.9675 19.5709 12.6712 16.7338 12.6712H15.2671C12.43 12.6712 10.1338 14.9675 10.1338 17.8046C10.1338 19.8533 11.3346 21.6179 13.0671 22.4429V24.4C13.0671 25.2112 13.7225 25.8666 14.5338 25.8666H17.4671C18.2784 25.8666 18.9338 25.2112 18.9338 24.4V22.4383V22.4429Z" fill="#DBEDEF"/>
<path d="M7.19967 11.2C7.97764 11.2 8.72375 10.8909 9.27385 10.3408C9.82396 9.79072 10.133 9.04461 10.133 8.26665C10.133 7.48868 9.82396 6.74257 9.27385 6.19247C8.72375 5.64236 7.97764 5.33331 7.19967 5.33331C6.42171 5.33331 5.6756 5.64236 5.12549 6.19247C4.57539 6.74257 4.26634 7.48868 4.26634 8.26665C4.26634 9.04461 4.57539 9.79072 5.12549 10.3408C5.6756 10.8909 6.42171 11.2 7.19967 11.2ZM3.53301 17.8C3.53301 17.0575 3.80801 16.3746 4.26634 15.8612V19.7433C3.80801 19.2208 3.53301 18.5425 3.53301 17.8ZM8.66634 17.8C8.66634 16.0675 9.33551 14.4908 10.4263 13.3129C9.68842 12.9004 8.83592 12.6666 7.93301 12.6666H6.46634C3.62926 12.6666 1.33301 14.9629 1.33301 17.8C1.33301 19.8487 2.53384 21.6133 4.26634 22.4383V24.4C4.26634 25.2112 4.92176 25.8666 5.73301 25.8666H8.66634C9.47759 25.8666 10.133 25.2112 10.133 24.4V22.4383V21.9479C9.21634 20.8158 8.66634 19.3721 8.66634 17.8ZM21.8663 22.4383V24.4C21.8663 25.2112 22.5218 25.8666 23.333 25.8666H26.2663C27.0776 25.8666 27.733 25.2112 27.733 24.4V22.4383C29.4655 21.6133 30.6663 19.8487 30.6663 17.8C30.6663 14.9629 28.3701 12.6666 25.533 12.6666H24.0663C23.1634 12.6666 22.3109 12.9004 21.573 13.3129C22.6638 14.4908 23.333 16.0675 23.333 17.8C23.333 19.3721 22.783 20.8158 21.8663 21.9479V22.4383ZM24.7997 11.2C25.5776 11.2 26.3237 10.8909 26.8739 10.3408C27.424 9.79072 27.733 9.04461 27.733 8.26665C27.733 7.48868 27.424 6.74257 26.8739 6.19247C26.3237 5.64236 25.5776 5.33331 24.7997 5.33331C24.0217 5.33331 23.2756 5.64236 22.7255 6.19247C22.1754 6.74257 21.8663 7.48868 21.8663 8.26665C21.8663 9.04461 22.1754 9.79072 22.7255 10.3408C23.2756 10.8909 24.0217 11.2 24.7997 11.2ZM28.4663 17.8C28.4663 18.5425 28.1913 19.2208 27.733 19.7387V15.8612C28.1913 16.3791 28.4663 17.0575 28.4663 17.8Z" fill="#CFECEE"/>
</svg>
