<svg width="30" height="21" viewBox="0 0 30 21" fill="none" xmlns="http://www.w3.org/2000/svg">
<g id="Group 22">
<path id="Vector" d="M17.9338 3.26665C17.9338 2.48868 17.6247 1.74257 17.0746 1.19247C16.5245 0.64236 15.7784 0.333313 15.0005 0.333313C14.2225 0.333313 13.4764 0.64236 12.9263 1.19247C12.3762 1.74257 12.0671 2.48868 12.0671 3.26665C12.0671 4.04461 12.3762 4.79072 12.9263 5.34083C13.4764 5.89093 14.2225 6.19998 15.0005 6.19998C15.7784 6.19998 16.5245 5.89093 17.0746 5.34083C17.6247 4.79072 17.9338 4.04461 17.9338 3.26665ZM12.0671 10.8612V14.7433C11.6088 14.2254 11.3338 13.5471 11.3338 12.8046C11.3338 12.0621 11.6088 11.3791 12.0671 10.8658V10.8612ZM17.9338 14.7433V10.8612C18.3921 11.3791 18.6671 12.0575 18.6671 12.8C18.6671 13.5425 18.3921 14.2208 17.9338 14.7387V14.7433ZM17.9338 17.4429C19.6663 16.6179 20.8671 14.8533 20.8671 12.8046C20.8671 9.96748 18.5709 7.67123 15.7338 7.67123H14.2671C11.43 7.67123 9.13379 9.96748 9.13379 12.8046C9.13379 14.8533 10.3346 16.6179 12.0671 17.4429V19.4C12.0671 20.2112 12.7225 20.8666 13.5338 20.8666H16.4671C17.2784 20.8666 17.9338 20.2112 17.9338 19.4V17.4383V17.4429Z" fill="#387D83"/>
<path id="Vector_2" d="M6.20016 6.19998C6.97813 6.19998 7.72424 5.89093 8.27434 5.34083C8.82445 4.79072 9.1335 4.04461 9.1335 3.26665C9.1335 2.48868 8.82445 1.74257 8.27434 1.19247C7.72424 0.64236 6.97813 0.333313 6.20016 0.333313C5.42219 0.333313 4.67609 0.64236 4.12598 1.19247C3.57588 1.74257 3.26683 2.48868 3.26683 3.26665C3.26683 4.04461 3.57588 4.79072 4.12598 5.34083C4.67609 5.89093 5.42219 6.19998 6.20016 6.19998ZM2.5335 12.8C2.5335 12.0575 2.8085 11.3746 3.26683 10.8612V14.7433C2.8085 14.2208 2.5335 13.5425 2.5335 12.8ZM7.66683 12.8C7.66683 11.0675 8.336 9.49081 9.42683 8.3129C8.68891 7.9004 7.83641 7.66665 6.9335 7.66665H5.46683C2.62975 7.66665 0.333496 9.9629 0.333496 12.8C0.333496 14.8487 1.53433 16.6133 3.26683 17.4383V19.4C3.26683 20.2112 3.92225 20.8666 4.7335 20.8666H7.66683C8.47808 20.8666 9.1335 20.2112 9.1335 19.4V17.4383V16.9479C8.21683 15.8158 7.66683 14.3721 7.66683 12.8ZM20.8668 17.4383V19.4C20.8668 20.2112 21.5222 20.8666 22.3335 20.8666H25.2668C26.0781 20.8666 26.7335 20.2112 26.7335 19.4V17.4383C28.466 16.6133 29.6668 14.8487 29.6668 12.8C29.6668 9.9629 27.3706 7.66665 24.5335 7.66665H23.0668C22.1639 7.66665 21.3114 7.9004 20.5735 8.3129C21.6643 9.49081 22.3335 11.0675 22.3335 12.8C22.3335 14.3721 21.7835 15.8158 20.8668 16.9479V17.4383ZM23.8002 6.19998C24.5781 6.19998 25.3242 5.89093 25.8743 5.34083C26.4244 4.79072 26.7335 4.04461 26.7335 3.26665C26.7335 2.48868 26.4244 1.74257 25.8743 1.19247C25.3242 0.64236 24.5781 0.333313 23.8002 0.333313C23.0222 0.333313 22.2761 0.64236 21.726 1.19247C21.1759 1.74257 20.8668 2.48868 20.8668 3.26665C20.8668 4.04461 21.1759 4.79072 21.726 5.34083C22.2761 5.89093 23.0222 6.19998 23.8002 6.19998ZM27.4668 12.8C27.4668 13.5425 27.1918 14.2208 26.7335 14.7387V10.8612C27.1918 11.3791 27.4668 12.0575 27.4668 12.8Z" fill="#60A5AB"/>
</g>
</svg>
