<svg width="24" height="24" viewBox="0 0 24 24" fill="none" xmlns="http://www.w3.org/2000/svg">
<path d="M12 11.778V21.556H18.1113L12 11.778Z" fill="#387D83"/>
<path opacity="0.4" d="M11.2895 2.22917C11.7135 1.92361 12.2864 1.92361 12.7104 2.22917L21.2662 8.34046C21.5488 8.5429 21.7321 8.8561 21.7703 9.19986L22.9926 20.2002C23.0308 20.5439 22.92 20.8915 22.687 21.1513C22.454 21.411 22.1256 21.5599 21.778 21.5599H18.1112L11.9999 11.7781V21.5561H2.22186C1.87428 21.5561 1.54198 21.4072 1.3128 21.1474C1.08363 20.8877 0.969043 20.5439 1.00724 20.1964L2.2295 9.19604C2.26769 8.85228 2.45103 8.53908 2.73368 8.33664L11.2895 2.22917Z" fill="#387D83"/>
</svg>
