<svg width="24" height="24" viewBox="0 0 24 24" fill="none" xmlns="http://www.w3.org/2000/svg">
<path opacity="0.4" d="M1 19.5002V20.1252C1 21.1603 1.83978 22.0001 2.87486 22.0001H12.2491H21.6234C22.6585 22.0001 23.4983 21.1603 23.4983 20.1252V19.5002H16.9168H12.2491H7.58153H1Z" fill="#387D83"/>
<path d="M15.5301 2.27488C16.0692 2.70453 16.1551 3.49353 15.7254 4.03256L13.8506 6.37613L23.0179 17.8362C23.3264 18.2229 23.4983 18.7072 23.4983 19.2033V19.5001H16.9168L12.2491 13.3951L7.58153 19.5001H1V19.2033C1 18.7072 1.16796 18.2229 1.48043 17.8362L10.6477 6.37613L8.77284 4.03256C8.34319 3.49353 8.42912 2.70844 8.96814 2.27488C9.50716 1.84132 10.2923 1.93115 10.7258 2.47017L12.2491 4.37628L13.7725 2.47017C14.2021 1.93115 14.9911 1.84522 15.5301 2.27488ZM2.86314 21.9999H21.6351C21.6312 21.9999 21.6273 21.9999 21.6234 21.9999H12.2491H2.87486C2.87095 21.9999 2.86705 21.9999 2.86314 21.9999Z" fill="#387D83"/>
</svg>
