<svg width="24" height="24" viewBox="0 0 24 24" fill="none" xmlns="http://www.w3.org/2000/svg">
<path d="M8.7 10.425C8.7 9.81651 8.20844 9.32495 7.6 9.32495C6.99156 9.32495 6.5 9.81651 6.5 10.425V19.5C6.5 20.1084 6.99156 20.6 7.6 20.6C8.20844 20.6 8.7 20.1084 8.7 19.5V10.425ZM17.5 10.425C17.5 9.81651 17.0084 9.32495 16.4 9.32495C15.7916 9.32495 15.3 9.81651 15.3 10.425V19.5C15.3 20.1084 15.7916 20.6 16.4 20.6C17.0084 20.6 17.5 20.1084 17.5 19.5V10.425Z" fill="#387D83"/>
<path opacity="0.4" d="M7.13594 3.19938L3.41313 7.17313C3.27562 7.32094 3.2 7.51344 3.2 7.71281C3.2 8.14594 3.55406 8.5 3.98719 8.5H4.85L2.28563 11.5766C2.16531 11.7209 2.1 11.9031 2.1 12.0922C2.1 12.5391 2.46094 12.9 2.90781 12.9H3.75L1.18563 15.9766C1.06531 16.1209 1 16.3031 1 16.4922C1 16.9391 1.36094 17.3 1.80781 17.3H6.5V10.425C6.5 9.81656 6.99156 9.325 7.6 9.325C8.20844 9.325 8.7 9.81656 8.7 10.425V17.3H13.3922C13.8391 17.3 14.2 16.9391 14.2 16.4922C14.2 16.3031 14.1347 16.1209 14.0144 15.9766L11.45 12.9H12.2922C12.7391 12.9 13.1 12.5391 13.1 12.0922C13.1 11.9031 13.0347 11.7209 12.9144 11.5766L10.35 8.5H11.2128C11.6494 8.5 12 8.14594 12 7.71281C12 7.51344 11.9244 7.32094 11.7869 7.17313L8.06406 3.19938C7.94375 3.07219 7.77531 3 7.6 3C7.42469 3 7.25625 3.07219 7.13594 3.19938ZM12.7425 6.60594C12.9728 6.92563 13.1 7.31063 13.1 7.70937C13.1 8.31781 12.8147 8.8575 12.3678 9.20125L13.7566 10.8719C14.0419 11.2156 14.2 11.6453 14.2 12.0922C14.2 12.7041 13.9113 13.2472 13.4644 13.5978L14.8566 15.2719C15.1384 15.6088 15.2931 16.035 15.3 16.475V10.425C15.3 9.81656 15.7916 9.325 16.4 9.325C17.0084 9.325 17.5 9.81656 17.5 10.425V17.3H22.1922C22.6391 17.3 23 16.9391 23 16.4922C23 16.3031 22.9347 16.1209 22.8144 15.9766L20.25 12.9H21.0922C21.5391 12.9 21.9 12.5391 21.9 12.0922C21.9 11.9031 21.8347 11.7209 21.7144 11.5766L19.15 8.5H20.0128C20.4494 8.5 20.8 8.14594 20.8 7.71281C20.8 7.51344 20.7244 7.32094 20.5869 7.17313L16.8641 3.19938C16.7438 3.07219 16.5753 3 16.4 3C16.2247 3 16.0563 3.07219 15.9359 3.19938L12.7425 6.60594Z" fill="#387D83"/>
</svg>
