<svg width="24" height="24" viewBox="0 0 24 24" fill="none" xmlns="http://www.w3.org/2000/svg">
<path d="M8.1875 21.625V12H5.4375V21.625C5.4375 22.3855 6.05195 23 6.8125 23C7.57305 23 8.1875 22.3855 8.1875 21.625ZM21.25 21.625V16.125H18.5V21.625C18.5 22.3855 19.1145 23 19.875 23C20.6355 23 21.25 22.3855 21.25 21.625Z" fill="#387D83"/>
<path opacity="0.4" d="M14.375 8.5625C14.375 2.375 19.1875 1 19.875 1C20.6355 1 21.25 1.61445 21.25 2.375V16.125H17.125C15.6082 16.125 14.375 14.8918 14.375 13.375V8.5625ZM4.13555 1.0043C4.48789 1.04297 4.75 1.33516 4.75 1.6875V7.45391C4.75 7.68594 4.93906 7.875 5.17109 7.875C5.39023 7.875 5.5707 7.70742 5.59219 7.48828L6.1293 1.62734C6.15937 1.2707 6.45586 1 6.8125 1C7.16914 1 7.46563 1.2707 7.4957 1.62734L8.02852 7.48828C8.05 7.70742 8.23047 7.875 8.44961 7.875C8.68164 7.875 8.8707 7.68594 8.8707 7.45391V1.6875C8.8707 1.33516 9.13281 1.04297 9.48516 1.0043C9.8375 0.965625 10.1555 1.19766 10.2328 1.53711L11.5348 7.39375C11.5949 7.66445 11.625 7.93945 11.625 8.21445C11.625 10.3027 9.93203 12 7.83945 12H5.78555C3.69297 12 2 10.307 2 8.21445C2 7.93945 2.03008 7.66445 2.09023 7.39375L3.39219 1.53711C3.46953 1.19766 3.7875 0.965625 4.13555 1.0043ZM6.8125 8.19297L6.79961 8.22305H6.8125H6.82539L6.8125 8.19297Z" fill="#387D83"/>
</svg>
